<svg data-name="Ebene 1" xmlns="http://www.w3.org/2000/svg" viewBox="0 0 838.53 200"><path fill="#fff" d="M0 0h838.53v200H0z"/><path fill="#6c0" d="M598.65 99.87H816.7v3.29H598.65z"/><path d="M601.08 146.19c0 17.36 11.07 30.94 29.58 30.94s29.57-13.58 29.57-30.94-11.06-31-29.57-31-29.58 13.59-29.58 31m9.93 0c0-11.66 5.8-22 19.65-22s19.64 10.29 19.64 22c0 11.34-5.8 21.94-19.64 21.94S611 157.53 611 146.19" fill="#1d1d1b" fill-rule="evenodd"/><path fill="#1d1d1b" d="M725.1 176.43h8.79v-59.42h-13.26l-16.18 44.53-16.31-44.53h-13.21v59.42h8.98l-.1-47.51 17.46 47.51h6.29l17.54-47.51v47.51zM800.34 117.02l-20.96 45.2-20.93-45.2h-11.02l27.47 59.42h8.26l28.01-59.42h-10.83z"/><path fill="#036" d="M788.52 23.51l-14.75 25.57h3.82l14.75-25.57h24.35l-37.67 64.68-37.56-64.68h47.06zM700.56 23.51l-14.75 25.57h3.82l14.75-25.57h18.3l-14.75 25.57h3.82l14.75-25.57h9.71v64.68h-63.93V23.51h28.28zM643.9 23.94a33.8 33.8 0 11-11.41-2 39 39 0 018.22 1.06l-15.06 26.1h3.82z"/><path fill="none" d="M598.34 21.83h218.39v156.33H598.34z"/><path d="M328.6 88.16h7.33v27.76h14.37v5.71h-21.7zM353.54 89.32h6.16l-1.25 11.49h-3.66zM370.74 111.66c0 1.53 0 6.26 4.77 6.26a3.83 3.83 0 004.08-3.25h6.26a7.84 7.84 0 01-2.23 5.1c-1.71 1.81-4.77 2.74-8.2 2.74-2 0-5.8-.37-8.25-2.92-2.14-2.23-3-5.38-3-9.14s.93-8.34 4.87-11.08a11.77 11.77 0 016.58-1.94 10.06 10.06 0 019.46 5.65 17.37 17.37 0 011.39 8.58zm8.71-4.31c0-1.07-.09-5.24-4.08-5.24-3 0-4.26 2.5-4.4 5.24zm-3.75-12.84H372l3.85-6.72h6.21zM391.08 102.39c0-.09 0-2.64-.13-4.27h6.58l.18 3.53c.65-1.07 2.51-4.08 7.61-4.08 4.58 0 6.53 2.78 7.13 4.4.51 1.44.65 2.64.65 7v12.66h-7v-14.56a5.6 5.6 0 00-.37-2.55 3.56 3.56 0 00-3.33-2 4.26 4.26 0 00-3.57 1.8 6.41 6.41 0 00-.84 3.57v13.73h-6.91zM424.83 111.66c0 1.53 0 6.26 4.77 6.26a3.83 3.83 0 004.08-3.25h6.26a7.81 7.81 0 01-2.22 5.1c-1.72 1.81-4.78 2.74-8.21 2.74-2 0-5.79-.37-8.25-2.92-2.13-2.23-3-5.38-3-9.14s.92-8.34 4.86-11.08a11.8 11.8 0 016.59-1.94 10.05 10.05 0 019.45 5.65 17.26 17.26 0 011.39 8.58zm8.71-4.31c0-1.07-.09-5.24-4.08-5.24-3 0-4.26 2.5-4.4 5.24zM445.08 104c0-1.11-.18-4.49-.32-5.84h6.44l.14 4.5c.88-2 2.41-4.82 8-4.54v6.16c-7-.65-7.37 2.92-7.37 5.84v11.55h-6.87zM485.32 98.31a51.28 51.28 0 00-.32 5.79v17.29c0 8.63-7.19 9.46-11.69 9.46-3.33 0-9.87-.42-10.29-7.51h6.59c.09.7.41 3.25 4.08 3.25a4 4 0 004.26-3.06c.28-1.16.28-2 .32-5.57a7.33 7.33 0 01-6.3 3.2c-6.72 0-9.87-5.84-9.87-11.49 0-5.94 3.29-11.59 10-11.59 4.26 0 5.84 2.31 6.53 3.33l.24-3.1zm-11.77 18.17c4.82 0 4.82-5.66 4.82-6.68 0-2.64-.51-7.13-4.68-7.13-2.6 0-4.73 2-4.73 7 .04 1.15.04 6.81 4.59 6.81zM491.2 88.16h7.33v6h-7.33zm.24 10h6.86v23.46h-6.86zM509.84 111.66c0 1.53 0 6.26 4.77 6.26a3.83 3.83 0 004.08-3.25H525a7.81 7.81 0 01-2.22 5.1c-1.72 1.81-4.78 2.74-8.21 2.74-2 0-5.79-.37-8.25-2.92-2.13-2.23-3-5.38-3-9.14s.92-8.34 4.86-11.08a11.8 11.8 0 016.59-1.94 10.05 10.05 0 019.45 5.65 17.26 17.26 0 011.39 8.58zm8.71-4.31c0-1.07-.09-5.24-4.08-5.24-3 0-4.26 2.5-4.4 5.24zM29.07 153.84l.19 3.34a7.81 7.81 0 017.14-3.8c6.07 0 9.73 4.54 9.73 11.68 0 6.63-3.43 12.51-10.2 12.51-4.21 0-5.93-2.22-6.53-3v11.68h-7v-32.4zm10.11 11.5c0-2.79-.7-7.56-4.73-7.56-2.22 0-5.38 1.67-5.38 8 0 1.39.05 7.33 5.1 7.33 3.25-.03 5.01-3.11 5.01-7.77zM62 153.28c8.49 0 12.15 5.75 12.15 12.29s-3.8 12.51-12.29 12.51c-6.67 0-12-4.12-12-12.33.02-5.65 2.9-12.47 12.14-12.47zm.1 20c3 0 5-1.81 5-8 0-3.11-.6-7.42-5.15-7.42-5 0-5 5.8-5 7.93-.02 5.21 1.74 7.52 5.13 7.52zM86 153.84v13.95c0 2 0 5.15 3.67 5.15 4.4 0 4.4-3.29 4.4-7.28v-11.82h7v15.44c.09 5.05.13 5.65.13 6.25s.1 1.07.19 1.72h-6.64l-.23-3.11a7.65 7.65 0 01-6.9 3.71 8.93 8.93 0 01-7.05-3.15C79 172.8 79 169.55 79 168.39v-14.55zM107.59 159.59c0-1.12-.18-4.5-.32-5.84h6.44l.14 4.49c.88-2 2.41-4.82 8-4.54v6.16c-6.95-.64-7.37 2.93-7.37 5.85v11.54h-6.86zM145.23 153.84v13.95c0 2 0 5.15 3.66 5.15 4.41 0 4.41-3.29 4.41-7.28v-11.82h7v15.44c.1 5.05.14 5.65.14 6.25s.1 1.07.19 1.72H154l-.23-3.11a7.67 7.67 0 01-6.91 3.71 8.92 8.92 0 01-7-3.15c-1.53-1.9-1.53-5.15-1.53-6.31v-14.55zM166.92 158c0-.09 0-2.64-.14-4.26h6.59l.18 3.52c.65-1.07 2.51-4.08 7.61-4.08 4.58 0 6.53 2.78 7.13 4.4.51 1.44.65 2.65.65 7v12.66h-7v-14.55a5.6 5.6 0 00-.37-2.55 3.56 3.56 0 00-3.34-2 4.26 4.26 0 00-3.56 1.81 6.36 6.36 0 00-.84 3.57v13.72h-6.91zM200.67 167.28c0 1.53 0 6.26 4.77 6.26a3.83 3.83 0 004.08-3.24h6.26a7.79 7.79 0 01-2.22 5.09c-1.72 1.81-4.78 2.74-8.21 2.74-2 0-5.79-.37-8.25-2.92-2.13-2.23-3-5.38-3-9.13s.9-8.35 4.9-11.08a11.73 11.73 0 016.59-1.95 10 10 0 019.45 5.66 17.22 17.22 0 011.39 8.57zm8.71-4.31c0-1.07-.09-5.24-4.08-5.24-3 0-4.26 2.51-4.4 5.24zM238.45 153.84l5.28 15.9 5.38-15.9h6.63l-8.44 23.41h-7.6l-8.58-23.41zM259.35 143.78h7.32v6h-7.32zm.23 10h6.86v23.46h-6.86zM278 167.28c0 1.53 0 6.26 4.78 6.26a3.84 3.84 0 004.08-3.24h6.26a7.87 7.87 0 01-2.23 5.09c-1.71 1.81-4.77 2.74-8.2 2.74-2 0-5.8-.37-8.25-2.92-2.14-2.23-3-5.38-3-9.13s.93-8.35 4.87-11.08a11.7 11.7 0 016.58-1.95 10.05 10.05 0 019.46 5.66 17.45 17.45 0 011.39 8.57zm8.7-4.28c0-1.07-.09-5.24-4.08-5.24-3 0-4.26 2.51-4.4 5.24zM311.27 158.24c0-1.48-.1-2.92-.24-4.4h6.63l.23 3c.75-1 2.55-3.52 7.24-3.52 5.37 0 6.9 3.29 7.37 4.4a7.77 7.77 0 017.51-4.35c4.72 0 6.63 2.82 7.13 3.75 1.26 2 1.16 4.87 1.16 6.91v13.21h-6.9v-13.76c0-2.5-.37-5.28-3.94-5.28-4.13 0-4.22 3.84-4.22 7.32v11.73h-6.91v-13.91c0-1.81-.05-5.14-3.85-5.14-4.31 0-4.31 3.7-4.31 5.28v13.77h-6.9zM360.4 167.28c0 1.53 0 6.26 4.77 6.26a3.83 3.83 0 004.08-3.24h6.26a7.79 7.79 0 01-2.22 5.09c-1.72 1.81-4.78 2.74-8.21 2.74-2 0-5.79-.37-8.25-2.92-2.13-2.23-3-5.38-3-9.13s.92-8.35 4.86-11.08a11.73 11.73 0 016.59-1.95 10 10 0 019.45 5.66 17.22 17.22 0 011.39 8.57zm8.71-4.31c0-1.07-.09-5.24-4.08-5.24-3 0-4.26 2.51-4.4 5.24zM380.42 143.78h7.33v6h-7.33zm.23 10h6.87v23.46h-6.87zM393.54 143.73h6.86v33.52h-6.86zM406.43 143.73h6.86v33.52h-6.86zM424.83 167.28c0 1.53 0 6.26 4.77 6.26a3.83 3.83 0 004.08-3.24h6.26a7.79 7.79 0 01-2.22 5.09c-1.72 1.81-4.78 2.74-8.21 2.74-2 0-5.79-.37-8.25-2.92-2.13-2.23-3-5.38-3-9.13s.92-8.35 4.86-11.08a11.73 11.73 0 016.59-1.95 10 10 0 019.45 5.66 17.22 17.22 0 011.39 8.57zm8.71-4.31c0-1.07-.09-5.24-4.08-5.24-3 0-4.26 2.51-4.4 5.24zM451.81 153.84v13.95c0 2 0 5.15 3.66 5.15 4.4 0 4.4-3.29 4.4-7.28v-11.82h7.05v15.44c.09 5.05.14 5.65.14 6.25s.09 1.07.18 1.72h-6.67l-.23-3.11a7.69 7.69 0 01-6.91 3.71 8.94 8.94 0 01-7.05-3.15c-1.53-1.9-1.53-5.15-1.53-6.31v-14.55zM473.41 159.59c0-1.12-.19-4.5-.33-5.84h6.44l.14 4.49c.88-2 2.41-4.82 8-4.54v6.16c-7-.64-7.37 2.93-7.37 5.85v11.54h-6.86zM497 167.28c0 1.53 0 6.26 4.78 6.26a3.84 3.84 0 004.08-3.24h6.25a7.79 7.79 0 01-2.22 5.09c-1.72 1.81-4.77 2.74-8.21 2.74-2 0-5.79-.37-8.25-2.92-2.13-2.23-3-5.38-3-9.13s.93-8.35 4.87-11.08a11.7 11.7 0 016.58-1.95 10.06 10.06 0 019.46 5.66 17.45 17.45 0 011.39 8.57zm8.72-4.31c0-1.07-.09-5.24-4.08-5.24-3 0-4.27 2.51-4.41 5.24zM517.63 171.08h5.88v6.17h-5.88z" fill="#1d1d1b"/></svg>